<?xml version="1.0" encoding="UTF-8" standalone="no"?><!DOCTYPE svg PUBLIC "-//W3C//DTD SVG 1.1//EN" "http://www.w3.org/Graphics/SVG/1.1/DTD/svg11.dtd"><svg width="100%" height="100%" viewBox="0 0 100 100" version="1.1" xmlns="http://www.w3.org/2000/svg" xmlns:xlink="http://www.w3.org/1999/xlink" xml:space="preserve" xmlns:serif="http://www.serif.com/" style="fill-rule:evenodd;clip-rule:evenodd;stroke-linejoin:round;stroke-miterlimit:2;"><path d="M50,54.167c-4.572,-0 -8.333,3.761 -8.333,8.333c-0,4.572 3.761,8.333 8.333,8.333c4.572,0 8.333,-3.761 8.333,-8.333c0,-4.572 -3.761,-8.333 -8.333,-8.333Z" style="fill:#02f;fill-rule:nonzero;stroke:#02f;stroke-width:4.17px;"/><path d="M29.167,37.5l-0,-8.333c-0,-11.429 9.404,-20.834 20.833,-20.834c11.429,0 20.833,9.405 20.833,20.834l0,8.333m-45.833,50l50,0c2.286,0 4.167,-1.881 4.167,-4.167l-0,-41.666c-0,-2.286 -1.881,-4.167 -4.167,-4.167l-50,0c-2.286,0 -4.167,1.881 -4.167,4.167l0,41.666c0,2.286 1.881,4.167 4.167,4.167Z" style="fill:none;fill-rule:nonzero;stroke:#02f;stroke-width:8.33px;stroke-linejoin:miter;stroke-miterlimit:10;"/></svg>